{"title":"Austenland 2013 DVDRip XviD AC3-PsiX","uid":9576997,"size":1412558115,"categoryP":"video","categoryS":"movies","magnet":"?xt=urn:btih:b296e3a06360b923fdb57e99352c043486950ff9&amp;dn=Austenland+2013+DVDRip+XviD+AC3-PsiX&amp;tr=udp%3A%2F%2Ftracker.openbittorrent.com%3A80&amp;tr=udp%3A%2F%2Fopen.demonii.com%3A1337&amp;tr=udp%3A%2F%2Ftracker.coppersurfer.tk%3A6969&amp;tr=udp%3A%2F%2Fexodus.desync.com%3A6969","seeders":2,"leechers":0,"uploader":"sakhslitsa","files":26,"time":1391716191,"description":" &lt;a href=&quot;http://www.imdb.com/title/tt1985019/&quot; rel=&quot;nofollow&quot; target=&quot;_NEW&quot;&gt;http://www.imdb.com/title/tt1985019/&lt;/a&gt;\n\n\nFormat : AVI\nFormat/Info : Audio Video Interleave\nFile size : 1.25 GiB\nDuration : 1h 32mn\nOverall bit rate : 1 921 Kbps\n\nVideo\nID : 0\nFormat : MPEG-4 Visual\nFormat profile : Advanced Simple@L5\nFormat settings, BVOP : 2\nFormat settings, QPel : No\nFormat settings, GMC : No warppoints\nFormat settings, Matrix : Default (H.263)\nCodec ID : XVID\nCodec ID/Hint : XviD\nDuration : 1h 32mn\nBit rate : 1 465 Kbps\nWidth : 720 pixels\nHeight : 304 pixels\nDisplay aspect ratio : 2.35:1\nFrame rate : 25.000 fps\nColor space : YUV\nChroma subsampling : 4:2:0\nBit depth : 8 bits\nScan type : Progressive\nCompression mode : Lossy\nBits/(Pixel*Frame) : 0.268\nStream size : 974 MiB (76%)\nWriting library : XviD 1.2.1 (UTC 2008-12-04)\n\nAudio\nID : 1\nFormat : AC-3\nFormat/Info : Audio Coding 3\nMode extension : CM (complete main)\nFormat settings, Endianness : Big\nCodec ID : 2000\nDuration : 1h 32mn\nBit rate mode : Constant\nBit rate : 448 Kbps\nChannel(s) : 6 channels\nChannel positions : Front: L C R, Side: L R, LFE\nSampling rate : 48.0 KHz\nBit depth : 16 bits\nCompression mode : Lossy\nStream size : 298 MiB (23%)\nAlignment : Aligned on interleaves\nInterleave, duration : 64 ms (1.60 video frames)\nInterleave, preload duration : 192 ms\nTitle : VTS_01_1 T80 3_2ch 448Kbps DELAY 0ms\n\n\n\n\nEncoded....................PsiX\nSource.....................DVD5 PAL\nSample.....................Yes\nSubs (idx).................Arabic, Bulgarian, Czech, English.\nSubs (idx).................Estonian, Greek, Polish, Romanian.\nSubs (idx).................Russian, Slovenian, Turkish.\nSubs (srt).................English\n\n\n\nGreetz To: tomcat-12 | Blacksheep | FWOLF | CFR | robie2 | ....\n.....and all P2P Encoders and Groups.....\n","torrent":{"xt":"urn:btih:b296e3a06360b923fdb57e99352c043486950ff9","amp;dn":"Austenland+2013+DVDRip+XviD+AC3-PsiX","amp;tr":["udp%3A%2F%2Ftracker.openbittorrent.com%3A80","udp%3A%2F%2Fopen.demonii.com%3A1337","udp%3A%2F%2Ftracker.coppersurfer.tk%3A6969","udp%3A%2F%2Fexodus.desync.com%3A6969"],"infoHash":"b296e3a06360b923fdb57e99352c043486950ff9","infoHashBuffer":{"type":"Buffer","data":[178,150,227,160,99,96,185,35,253,181,126,153,53,44,4,52,134,149,15,249]},"announce":[],"urlList":[]}}